<svg xmlns="http://www.w3.org/2000/svg" viewBox="0 0 500 500"><g id="freepik--Floor--inject-15"><ellipse id="freepik--floor--inject-15" cx="250.05" cy="310.28" rx="234.33" ry="133.59" style="fill:#f5f5f5"></ellipse></g><g id="freepik--Shadows--inject-15"><ellipse id="freepik--Shadow--inject-15" cx="375.52" cy="366.03" rx="54.16" ry="31.27" style="fill:#e0e0e0"></ellipse><path id="freepik--shadow--inject-15" d="M320.52,171.82l116.66,67.49c16.46,9.53,16.45,24.95,0,34.45L217.55,400.19c-82.37,47.7-242.49-65-176.49-101.84L260.89,171.78C277.36,162.27,304.06,162.29,320.52,171.82Z" style="fill:#e0e0e0"></path></g><g id="freepik--Car--inject-15"><g id="freepik--car--inject-15"><g id="freepik--Interiors--inject-15"><path d="M322.57,98.57c-5.68-1.47-29.91-9.59-58.4,6.41-6.75,3.79-20.36,11.7-37.22,21.58,0,0-19.61,20.41-44.5,33.42-47.09,24.62-78.93,39.33-78.93,39.33a9.3,9.3,0,0,0,3,1.61c14,5.65,47.19,36.21,70,28.06C203.09,219.49,322.57,98.57,322.57,98.57Z" style="fill:#59FF00"></path><path d="M123.2,190.6s55.89-24.5,63.75-29.4a124.28,124.28,0,0,0,17.27-12.7c2.63-2.52,2,5.91-11.77,13.59C174,172.44,123.2,190.6,123.2,190.6Z" style="fill:#fff;opacity:0.5"></path><path d="M207.44,131.93c0,2.42.22,5.76.44,10.14.3,5.87-.54,8.92-3.28,13.44-1.26,2.07-4,5.16-9,8.25-27.66,17-92.08,35.55-92.08,35.55l2.94,1.61,76.91-8.58,33.48-22,.78-36.24-5.19-2.76Z" style="fill:#37474f"></path><path d="M217.64,134.1l0,1.84c-.68,1.84-1.85,4.37-3.46,5.34a5.49,5.49,0,0,1-2.85.79c-1.84,0-3.45-.94-3.54-2.45,0-.4,0-.81-.07-1.2-.17-2.87-.23-4.77-.23-6.49l5-.59Z" style="fill:#59FF00"></path><path d="M217.64,134.1l0,1.84c-.68,1.84-1.85,4.37-3.46,5.34a5.49,5.49,0,0,1-2.85.79c-1.84,0-3.45-.94-3.54-2.45,0-.4,0-.81-.07-1.2-.17-2.87-.23-4.77-.23-6.49l5-.59Z" style="opacity:0.30000000000000004"></path><path d="M334.55,109.9C329,96.76,318.81,96.78,302,99.17c-1.95.27-44.83,9.24-68.83,18.43-18.13,6.94-23.47,12.2-24.91,13-3.36,1.94,2.2,5.14,5.88,3.4,0,2.84.08,5.28,0,7.44-.45,13-2.59,15-8.82,22-2.57,2.89-10.25,6.77-14.45,9.13-7.84,4.4-7.45.95-28.26,9-8.92,3.45-51.77,19.52-56.36,19.48l114.05,71.43,36,26.95L421.93,167.18Z" style="fill:#59FF00"></path><polygon points="214.35 133.91 227.7 124.93 337.73 184.98 320.19 195.1 320.21 262.95 214.35 201.81 214.35 133.91" style="fill:#59FF00"></polygon><polygon points="214.35 133.91 227.7 124.93 340.83 181.01 368.86 184.7 361.61 207.06 320.21 262.95 214.35 201.81 214.35 133.91" style="opacity:0.25"></polygon><path d="M245.14,114.68c-8.81,2.71-14.75,4.39-12.54,5.58S291.38,106,302.43,104s19.6-2.9,5.88-6c-12.25-2.73-20.1-1.85-27.39.69s-21.07,10.07-21.07,10.07,35.36-8.71,36.69-8.88,4.67,0-3.64,2.35S254,112,245.14,114.68Z" style="fill:#fff;opacity:0.5"></path><path d="M185.48,237.63s1.77-36.43,3.12-63.85c-8.83,4.54-6.9.38-25.78,7.67-7.77,3-41.31,15.59-52.84,18.75l-3.52.72,66.91,41.89Z" style="opacity:0.30000000000000004"></path></g><g id="freepik--codriver-seat--inject-15"><path d="M246.46,232.63l-13.14-.26-20-11.45a15,15,0,0,0-12.11-.59L177,231.27l-16.61-.33v9.7h0c0,1.09.77,2.21,2.35,3.12l43.5,25.12a10.63,10.63,0,0,0,11.18-.89l27-21.94a4.81,4.81,0,0,0,2-3.71l0,0Z" style="fill:#37474f"></path><path d="M162.74,234.06l43.5,25.12a10.65,10.65,0,0,0,11.18-.89l27-21.94c2.92-2.36,2.64-5.8-.62-7.67l-30.49-17.46a15,15,0,0,0-12.11-.59l-38.17,17.23C159.62,229.4,159.48,232.18,162.74,234.06Z" style="fill:#455a64"></path><path d="M246.47,232.64v9.67s0,0-.05,0a4.8,4.8,0,0,1-2,3.72l-27,21.93a10,10,0,0,1-5.28,2v-9.69a9.9,9.9,0,0,0,5.28-2l27-21.94A4.85,4.85,0,0,0,246.47,232.64Z" style="fill:#263238"></path><path d="M250.66,229.76a2.46,2.46,0,0,1-.93,2.31l-11.08,6.39h0a2.29,2.29,0,0,0,.95-2.3L237.2,182a8.31,8.31,0,0,0-3.72-6.13l-26.11-15.07a2.81,2.81,0,0,0-2.75-.22h0l11-6.34h0a2.8,2.8,0,0,1,2.82.18l26.09,15.07a8.26,8.26,0,0,1,3.72,6.12Z" style="fill:#263238"></path><path d="M207.38,160.82l26.1,15.07A8.31,8.31,0,0,1,237.2,182l2.4,54.14c.1,2.26-1.4,3.17-3.36,2l-37.16-21.45a6.47,6.47,0,0,1-2.93-6.08l7.09-47.84A2.59,2.59,0,0,1,207.38,160.82Z" style="fill:#37474f"></path><path d="M247.1,172.16l-11,6.38a7.78,7.78,0,0,0-2.57-2.65l-26.11-15.07a2.81,2.81,0,0,0-2.75-.22h0l11-6.34h0a2.8,2.8,0,0,1,2.82.18l26.09,15.07A7.69,7.69,0,0,1,247.1,172.16Z" style="fill:#455a64"></path><path d="M242.54,164.29V150.81c0-9.69-6.19-21.13-13.82-25.54-3.5-2-6.69-2.19-9.13-.87v0l-8.42,4.9,3.74,7.15v11.9a7.82,7.82,0,0,0,3.53,6.12l8.42,4.86,6.33,12.11,8.33-4.84h0A2.49,2.49,0,0,0,242.54,164.29Z" style="fill:#263238"></path><path d="M228.72,144.47l10.84-6.26c-2.53-5.53-6.44-10.4-10.84-12.94-3.5-2-6.69-2.19-9.13-.87v0l-8.42,4.9,3.74,7.15v2.34Z" style="fill:#455a64"></path><path d="M234.25,169.11V155.64c0-9.7-6.19-21.13-13.82-25.54s-13.83-.12-13.83,9.58v13.47a7.83,7.83,0,0,0,3.54,6.13l20.57,11.87C232.67,172.28,234.25,171.37,234.25,169.11Z" style="fill:#37474f"></path><path d="M208.16,172.29a134.2,134.2,0,0,0-4.57,36.64,9.47,9.47,0,0,0,3.33,6.59,104.62,104.62,0,0,0,20.8,12,2.67,2.67,0,0,0,4-2.52c.66-14.67.88-28.35.13-39.73a10.1,10.1,0,0,0-3.56-6.56,82.13,82.13,0,0,0-15.18-8.77A3.53,3.53,0,0,0,208.16,172.29Z" style="fill:#59FF00"></path><path d="M231.4,226.23a3.7,3.7,0,0,0,.28-1.25c.66-14.67.88-28.35.13-39.73a9.47,9.47,0,0,0-1.14-3.6c-1.45-2.06-2,15.27-1.95,25.84s.14,21,1.87,19.8a1.56,1.56,0,0,0,.2-.16A6,6,0,0,0,231.4,226.23Z" style="opacity:0.15"></path><g style="opacity:0.15"><path d="M206,208s.32.19.84.54,1.29.83,2.19,1.42c1.8,1.18,4.21,2.7,6.69,4.11s5,2.73,6.91,3.69c1,.48,1.76.91,2.34,1.17s.88.46.88.46-.36-.06-1-.21-1.51-.35-2.54-.7-2.23-.78-3.48-1.31c-.62-.29-1.27-.56-1.91-.9s-1.27-.68-1.91-1c-1.25-.75-2.48-1.52-3.59-2.33a35.9,35.9,0,0,1-2.89-2.34c-.82-.72-1.44-1.39-1.89-1.84S206,208,206,208Z"></path><path d="M206,201.2s.32.19.84.54,1.29.83,2.19,1.42c1.8,1.18,4.21,2.69,6.69,4.1s5,2.73,6.91,3.7c1,.47,1.76.9,2.34,1.17s.88.46.88.46l-1-.21c-.62-.16-1.51-.36-2.54-.7a35.11,35.11,0,0,1-3.48-1.32c-.62-.29-1.27-.56-1.91-.9s-1.27-.67-1.91-1c-1.25-.74-2.48-1.52-3.59-2.32s-2.09-1.61-2.89-2.34-1.44-1.39-1.89-1.84S206,201.2,206,201.2Z"></path><path d="M207.43,195.54s.29.17.78.49,1.2.75,2,1.29c1.67,1.08,3.9,2.45,6.2,3.69s4.67,2.37,6.46,3.24l2.16,1.07.81.42s-.33-.05-.9-.17-1.39-.31-2.35-.59a34.06,34.06,0,0,1-3.25-1.11c-.58-.25-1.19-.47-1.78-.77s-1.2-.59-1.8-.9-1.17-.66-1.73-1-1.09-.73-1.61-1.08a30.52,30.52,0,0,1-2.68-2.17c-.75-.67-1.32-1.29-1.72-1.71S207.43,195.54,207.43,195.54Z"></path><path d="M208,189.16l.76.46c.46.33,1.16.73,2,1.25,1.61,1,3.76,2.36,6,3.52s4.54,2.24,6.27,3.07l2.09,1c.51.25.79.41.79.41l-.87-.16c-.55-.13-1.35-.29-2.28-.55s-2-.6-3.15-1c-.56-.23-1.16-.44-1.73-.72s-1.17-.55-1.75-.84-1.14-.64-1.68-1-1.07-.7-1.57-1a28.2,28.2,0,0,1-2.59-2.09c-.72-.65-1.27-1.26-1.65-1.66S208,189.16,208,189.16Z"></path><path d="M209,183.07l.72.43,1.85,1.17a63.06,63.06,0,0,0,5.66,3.25c2.11,1.07,4.31,2,6,2.78s2.71,1.36,2.71,1.36a29.41,29.41,0,0,1-3-.63,32.37,32.37,0,0,1-6.29-2.29c-.55-.29-1.09-.58-1.61-.89s-1-.66-1.48-1a24.79,24.79,0,0,1-2.43-2A20.41,20.41,0,0,1,209,183.07Z"></path><path d="M211.24,177.21s.93.53,2.26,1.37,3.09,1.88,4.92,2.83,3.7,1.84,5.11,2.55,2.33,1.25,2.33,1.25a18.67,18.67,0,0,1-2.61-.52,26.75,26.75,0,0,1-5.46-2.07c-.47-.27-.94-.53-1.39-.8s-.87-.58-1.28-.87a18.15,18.15,0,0,1-2.1-1.76A15.65,15.65,0,0,1,211.24,177.21Z"></path></g><path d="M197,221.54c-6.86,1.22-13.65,4.73-20.38,9.78a3,3,0,0,0,0,5,135,135,0,0,0,26.2,15,9.73,9.73,0,0,0,7.42-.2A65,65,0,0,0,225.93,240a3.49,3.49,0,0,0-.5-5.4,110.17,110.17,0,0,0-20.55-12.05A16.39,16.39,0,0,0,197,221.54Z" style="fill:#59FF00"></path><g style="opacity:0.2"><path d="M180.31,233.85s.43.11,1.16.34,1.8.56,3,1a63.86,63.86,0,0,1,8.8,4.13,58.43,58.43,0,0,1,8,5.46,42.52,42.52,0,0,1,3.28,2.95l-3.74-2.32c-2.23-1.39-5.21-3.2-8.25-4.91s-6.12-3.37-8.45-4.6l-2.81-1.5C180.69,234.07,180.31,233.85,180.31,233.85Z"></path><path d="M186.85,230.08l1.16.34c.73.24,1.8.57,3,1a63.7,63.7,0,0,1,8.8,4.12,59.34,59.34,0,0,1,8,5.46,43.69,43.69,0,0,1,3.28,3l-3.74-2.32c-2.23-1.4-5.21-3.2-8.25-4.91s-6.12-3.37-8.45-4.6l-2.81-1.5C187.23,230.31,186.85,230.08,186.85,230.08Z"></path><path d="M192.47,226.89s.42.11,1.16.34,1.8.56,3,1a64.25,64.25,0,0,1,8.8,4.12,59,59,0,0,1,8,5.46,42.52,42.52,0,0,1,3.28,3s-1.5-.92-3.74-2.32-5.22-3.19-8.25-4.91-6.12-3.36-8.45-4.59l-2.81-1.5Z"></path><path d="M198.59,224.27s.4.1,1.08.31,1.65.5,2.78.93a56.19,56.19,0,0,1,8.09,3.76,52.08,52.08,0,0,1,7.37,5,38.64,38.64,0,0,1,3,2.74s-.35-.2-1-.58-1.47-.89-2.5-1.52c-2-1.27-4.79-2.92-7.58-4.49s-5.61-3.09-7.74-4.23l-2.57-1.4C198.94,224.48,198.59,224.27,198.59,224.27Z"></path></g></g><g id="freepik--codriver-seat--inject-15"><path d="M306.44,267.8l-13.14-.26-20-11.45a15,15,0,0,0-12.11-.58L237,266.44l-16.6-.33v9.7h0c0,1.09.77,2.21,2.35,3.12l43.5,25.12a10.63,10.63,0,0,0,11.18-.89l27-21.93a4.85,4.85,0,0,0,2-3.72l0,0Z" style="fill:#37474f"></path><path d="M222.72,269.23l43.5,25.12a10.63,10.63,0,0,0,11.18-.89l27-21.93c2.92-2.37,2.64-5.81-.62-7.68l-30.48-17.46a15,15,0,0,0-12.11-.58L223,263C219.6,264.57,219.46,267.35,222.72,269.23Z" style="fill:#455a64"></path><path d="M306.45,267.81v9.68l0,0a4.8,4.8,0,0,1-2,3.72l-27,21.93a10,10,0,0,1-5.28,2v-9.69a10,10,0,0,0,5.28-2l27-22A4.85,4.85,0,0,0,306.45,267.81Z" style="fill:#263238"></path><path d="M310.64,264.94a2.41,2.41,0,0,1-.93,2.3l-11.08,6.39h0a2.31,2.31,0,0,0,1-2.3l-2.41-54.13a8.31,8.31,0,0,0-3.72-6.13L267.35,196a2.76,2.76,0,0,0-2.74-.21v0l11-6.34h0a2.8,2.8,0,0,1,2.82.18l26.09,15.07a8.24,8.24,0,0,1,3.72,6.12Z" style="fill:#263238"></path><path d="M267.36,196l26.1,15.07a8.31,8.31,0,0,1,3.72,6.12l2.4,54.14c.1,2.26-1.4,3.17-3.35,2l-37.16-21.45a6.46,6.46,0,0,1-2.94-6.08L263.22,198A2.59,2.59,0,0,1,267.36,196Z" style="fill:#37474f"></path><path d="M307.09,207.33,296,213.72a7.73,7.73,0,0,0-2.57-2.66L267.35,196a2.76,2.76,0,0,0-2.74-.21v0l11-6.34h0a2.8,2.8,0,0,1,2.82.18l26.09,15.07A7.81,7.81,0,0,1,307.09,207.33Z" style="fill:#455a64"></path><path d="M302.53,199.46V186c0-9.69-6.19-21.13-13.83-25.53-3.5-2-6.69-2.2-9.13-.88v0l-8.43,4.9,3.74,7.16V183.5a7.8,7.8,0,0,0,3.54,6.12l8.41,4.86,6.33,12.11,8.33-4.84h0A2.5,2.5,0,0,0,302.53,199.46Z" style="fill:#263238"></path><path d="M288.7,179.64l10.84-6.26c-2.53-5.52-6.44-10.4-10.84-12.93-3.5-2-6.69-2.2-9.13-.88v0l-8.43,4.9,3.74,7.16v2.33Z" style="fill:#455a64"></path><path d="M294.23,204.28V190.81c0-9.7-6.19-21.13-13.82-25.54s-13.82-.12-13.82,9.58v13.47a7.82,7.82,0,0,0,3.53,6.13l20.58,11.88C292.65,207.45,294.23,206.54,294.23,204.28Z" style="fill:#37474f"></path><path d="M268.15,207.46a133.84,133.84,0,0,0-4.58,36.65,9.46,9.46,0,0,0,3.33,6.58,104.62,104.62,0,0,0,20.8,12,2.68,2.68,0,0,0,4-2.51c.65-14.68.88-28.36.12-39.74a10.1,10.1,0,0,0-3.56-6.56,81.81,81.81,0,0,0-15.18-8.77A3.53,3.53,0,0,0,268.15,207.46Z" style="fill:#59FF00"></path><path d="M291.38,261.4a3.47,3.47,0,0,0,.29-1.24c.65-14.68.88-28.36.12-39.74a9.13,9.13,0,0,0-1.14-3.6c-1.45-2.06-2,15.28-1.95,25.85s.15,21,1.88,19.79l.2-.16A6.92,6.92,0,0,0,291.38,261.4Z" style="opacity:0.15"></path><g style="opacity:0.15"><path d="M266,243.21l.84.54c.52.36,1.28.83,2.18,1.42,1.81,1.18,4.22,2.7,6.69,4.11s5,2.73,6.92,3.69c1,.48,1.76.91,2.33,1.17s.88.46.88.46-.35-.06-1-.21-1.51-.35-2.54-.7a34.86,34.86,0,0,1-3.48-1.31c-.62-.29-1.27-.56-1.9-.9s-1.28-.67-1.92-1c-1.25-.74-2.48-1.52-3.58-2.33a36.18,36.18,0,0,1-2.9-2.34c-.82-.72-1.44-1.39-1.88-1.84S266,243.21,266,243.21Z"></path><path d="M266,236.37l.84.54c.52.36,1.28.83,2.18,1.42,1.81,1.18,4.22,2.69,6.69,4.1s5,2.73,6.92,3.7c1,.48,1.76.91,2.33,1.17s.88.46.88.46l-1-.21c-.62-.16-1.51-.36-2.54-.7a35.11,35.11,0,0,1-3.48-1.32c-.62-.29-1.27-.55-1.9-.89s-1.28-.68-1.92-1c-1.25-.74-2.48-1.52-3.58-2.32s-2.09-1.61-2.9-2.34-1.44-1.39-1.88-1.84S266,236.37,266,236.37Z"></path><path d="M267.41,230.71s.29.17.78.49,1.2.76,2,1.3c1.66,1.07,3.89,2.44,6.19,3.68s4.67,2.37,6.46,3.24l2.16,1.07.81.42s-.33,0-.9-.17-1.39-.3-2.35-.59a34.06,34.06,0,0,1-3.25-1.11c-.58-.25-1.19-.47-1.78-.77s-1.2-.59-1.8-.89-1.17-.67-1.73-1-1.09-.73-1.61-1.08a28.8,28.8,0,0,1-2.68-2.17c-.74-.67-1.32-1.29-1.72-1.71S267.41,230.71,267.41,230.71Z"></path><path d="M268,224.33s.28.16.76.47,1.16.72,2,1.24c1.61,1,3.76,2.36,6,3.52s4.53,2.24,6.27,3.07l2.09,1c.5.25.78.41.78.41l-.87-.16c-.55-.13-1.35-.28-2.28-.55s-2-.6-3.15-1c-.56-.23-1.15-.44-1.73-.72s-1.17-.55-1.75-.84-1.14-.64-1.68-1-1.07-.7-1.57-1a28.26,28.26,0,0,1-2.58-2.1c-.72-.65-1.27-1.26-1.66-1.66S268,224.33,268,224.33Z"></path><path d="M269,218.24l.72.43c.44.29,1.08.69,1.85,1.17a62.67,62.67,0,0,0,5.65,3.26c2.11,1.06,4.31,2,5.95,2.77s2.71,1.36,2.71,1.36a29,29,0,0,1-3-.63,32.44,32.44,0,0,1-6.3-2.29c-.54-.29-1.09-.58-1.61-.89s-1-.66-1.48-1a23.42,23.42,0,0,1-2.43-2A19.6,19.6,0,0,1,269,218.24Z"></path><path d="M271.22,212.38s.94.53,2.26,1.37,3.09,1.89,4.92,2.83,3.7,1.84,5.11,2.55,2.33,1.26,2.33,1.26a19.92,19.92,0,0,1-2.6-.53,26.82,26.82,0,0,1-5.47-2.07c-.47-.26-.94-.52-1.39-.8s-.87-.58-1.28-.87a18,18,0,0,1-2.1-1.76A16.71,16.71,0,0,1,271.22,212.38Z"></path></g><path d="M257,256.71c-6.86,1.23-13.64,4.73-20.38,9.78a3,3,0,0,0,0,5,134.74,134.74,0,0,0,26.2,15,9.71,9.71,0,0,0,7.41-.19,65.35,65.35,0,0,0,15.66-11.18,3.48,3.48,0,0,0-.5-5.4,110.17,110.17,0,0,0-20.55-12.05A16.51,16.51,0,0,0,257,256.71Z" style="fill:#59FF00"></path><g style="opacity:0.2"><path d="M240.29,269s.43.11,1.17.34,1.79.56,3,1a63,63,0,0,1,8.79,4.12,58.43,58.43,0,0,1,8,5.46,44.15,44.15,0,0,1,3.29,2.95l-3.74-2.32c-2.23-1.39-5.22-3.2-8.26-4.91s-6.12-3.36-8.44-4.59l-2.81-1.51C240.67,269.24,240.29,269,240.29,269Z"></path><path d="M246.83,265.25l1.17.35c.73.23,1.79.56,3,1a63.7,63.7,0,0,1,8.8,4.12,59.34,59.34,0,0,1,8,5.46,43.69,43.69,0,0,1,3.28,3l-3.74-2.32c-2.23-1.39-5.21-3.2-8.25-4.91s-6.12-3.37-8.44-4.6l-2.82-1.5C247.21,265.48,246.83,265.25,246.83,265.25Z"></path><path d="M252.45,262.06l1.16.34c.74.24,1.8.57,3,1a63.7,63.7,0,0,1,8.8,4.12,59.34,59.34,0,0,1,8,5.46,43.69,43.69,0,0,1,3.28,3L273,273.66c-2.23-1.4-5.21-3.2-8.25-4.92s-6.12-3.36-8.45-4.59l-2.81-1.5C252.83,262.29,252.45,262.06,252.45,262.06Z"></path><path d="M258.57,259.44s.4.1,1.08.31,1.65.5,2.79.93a56.62,56.62,0,0,1,8.08,3.76,52.08,52.08,0,0,1,7.37,5,38.64,38.64,0,0,1,3,2.74s-.35-.2-.95-.57l-2.49-1.53c-2.06-1.27-4.8-2.91-7.59-4.49s-5.6-3.09-7.73-4.23l-2.57-1.4C258.92,259.65,258.57,259.44,258.57,259.44Z"></path></g></g><g id="freepik--back-car--inject-15"><polygon points="439.33 230.19 394.44 204.27 419.38 189.87 443.65 205.2 439.33 230.19" style="fill:#59FF00"></polygon><polygon points="439.33 230.19 394.44 204.27 419.38 189.87 443.65 205.2 439.33 230.19" style="opacity:0.35000000000000003"></polygon><path d="M420.4,224l6.45-12.8-15.34-8.88h0c-4.88-2.8-11.38-2.49-18.51,1.63-15.15,8.75-27.43,31.31-27.44,50.4,0,10,3.37,17,8.76,20.24h0l.22.13h0l15.73,9.08,6.8-13.5C410,260.49,419.9,241.06,420.4,224Z" style="fill:#37474f"></path><path d="M420.4,224l6.45-12.8-15.34-8.88h0c-4.88-2.8-11.38-2.49-18.51,1.63-15.15,8.75-27.43,31.31-27.44,50.4,0,10,3.37,17,8.76,20.24h0l.22.13h0l15.73,9.08,6.8-13.5C410,260.49,419.9,241.06,420.4,224Z" style="fill:#263238"></path><path d="M436.39,231.91c0,16.46-9.13,35.5-21.36,46a.08.08,0,0,0,0,.05,41.24,41.24,0,0,1-6,4.31c-15.15,8.75-27.44.37-27.43-18.72,0-14.41,7-30.83,17-41.76a.36.36,0,0,0,.08-.09A44.32,44.32,0,0,1,409,213.2C424.11,204.45,436.39,212.83,436.39,231.91Z" style="fill:#37474f"></path><path d="M409,224.72c9.64-5.57,17.46.23,17.46,12.95S418.6,265.22,409,270.79s-17.46-.23-17.46-13S399.32,230.28,409,224.72Z" style="fill:#455a64"></path><path d="M416.82,244.17c-.61,6.33-4.64,13.07-9,15.05a4.24,4.24,0,0,1-4.75-.37c-1.54-1.29-2.35-4-2-7.52.61-6.33,4.62-13.07,9-15a4.85,4.85,0,0,1,3.19-.44s0,0,0,0C415.78,236.45,417.27,239.56,416.82,244.17Z" style="fill:#fafafa"></path><path d="M415.26,243.37c-.62,6.33-4.64,13.07-9,15a4.87,4.87,0,0,1-3.18.44c-1.54-1.29-2.35-4-2-7.52.61-6.33,4.62-13.07,9-15a4.85,4.85,0,0,1,3.19-.44s0,0,0,0C414.8,237.15,415.6,239.82,415.26,243.37Z" style="fill:#e0e0e0"></path><path d="M436.39,231.91c0,16.46-9.13,35.5-21.36,46,7.24-7.89,14.74-21.09,17.4-33.67,2.32-11,1.45-26.8-8-30.79s-21.9,4.42-25.85,8.25A44.32,44.32,0,0,1,409,213.2C424.11,204.45,436.39,212.83,436.39,231.91Z" style="fill:#455a64"></path><path d="M443.84,168c-5.56-13.14-28.75-26.79-38.65-21.83-3.08,1.53-11.84,6.84-22.88,13.2,0,0-36.31,22-39.66,23.9,0,0,17.35-.29,21.29,1.13s3.16,4.44,2.9,5.56l-2,6.44c-4.52,22-38.71,31-46,39.13-2.57,2.89-4.68,3.92-8.85,6.32s-30.15,16.91-33.85,19.05c-6.67,3.85-17.47,8.76-17.47,8.76v64.57l114.08-65.41a50.5,50.5,0,0,1,.28-5.3c2-21,17.42-45.34,33.92-54.86,17.9-10.34,32.42-.68,32.42,21.58l2.9-1.67C452.62,222.31,449.39,181.08,443.84,168Z" style="fill:#59FF00"></path><path d="M380.57,183.5c-7,0-7.29,3.65-9.58,10.87-1.8,5.68-4.58,10.72-1.19,9s15.05-14.14,17.22-16.29C391.5,182.66,383.77,183.5,380.57,183.5Z"></path><path d="M414.69,145.59c-3.69-.82-7.05-.77-9.56.49-3.08,1.54-11.85,6.86-22.89,13.22l-14.86,8.56-79.2-45.63s30.72-15.68,41.62-19.89S411.61,137.42,414.69,145.59Z" style="fill:#59FF00"></path><path d="M260.79,273.78l61.14-35a4.68,4.68,0,0,1,1.85,4.06Z" style="fill:#fff;opacity:0.5"></path><path d="M312.88,252.7a.38.38,0,0,1-.56-.32v-1.75c0-1.32,2-3.54,4.42-4.94l3.6-2.08c2.44-1.41,4.42-1.48,4.42-.16v1.43a1.67,1.67,0,0,1-.84,1.45Z" style="fill:#37474f"></path><path d="M356.22,218.57c-3.14,2.35-21,13-23.5,14.59a12.09,12.09,0,0,1,3.12,5.08s63.48-36.64,79-50.36,24-26.5,12-33.15c-3.64-2-7-4.74-11.43-3.1a2.58,2.58,0,0,0-.87.49,3.16,3.16,0,0,0-.73,1.58c-3.52,13.65-14.69,23.87-23.7,34.18C381.28,198,367.31,210.27,356.22,218.57Z" style="fill:#fff;opacity:0.5"></path><path d="M239.53,121.32s75.21-21.18,80.55-18S254.4,137.8,254.4,137.8Z" style="opacity:0.15"></path><path d="M268,317.75c-2.69,1.43-3.23-4.34-4.77-15.57s-1.38-30.05-1.38-30.05c-1.85,8.42-1.08,28.82,0,41.89s3.54,11.85,6.15,9.91l60.59-37.2Z" style="opacity:0.15"></path><path d="M325.73,236s3.5,4.08,3.5,13c0,10.66.11,36,.11,36s2-28.19,3.17-37-3.29-13.83-3.29-13.83Z" style="opacity:0.15"></path><path d="M394.44,215.65s-1.56-7.6-3.75-10.45-13.81-4.27-13.81-4.27,9.11,3.14,11.63,5.83S394.44,215.65,394.44,215.65Z" style="opacity:0.15"></path><path d="M428.32,205.2s11.58-6.63,14.07-11,3.54-18.9,3.54-18.9S446.93,192,444,196,428.32,205.2,428.32,205.2Z" style="opacity:0.15"></path><path d="M400.45,171.13c-9.82-9.39-21.82-16.19-33.32-23.3s-22.87-14-34.45-20.69c-9.54-5.54-19.12-11-29-16a79.71,79.71,0,0,0-8.11-3.65l-1.05-.37-.13,0c-1.37-.43-3.09-.93-5.08-1.44-10.19-2.65-27.56-5.88-42.82-4.92-13.3.84-80.46,32.95-87.88,41.53a153.94,153.94,0,0,0-9.75,12.2s9.16-7.07,13.65-5.44c3.62,1.32,29.54,24.71,47,34,20.84,11,49.63,21.9,56.79,25.14s2.71,11.9,2.71,11.9c3.31-5.25,4.93-8.21,9-11.63,7.48-6.29,37.53-21.92,38-22.16a33.77,33.77,0,0,1,13.4-3.71l31.31,1,35.73-7.61a11.17,11.17,0,0,0,5.35-1.59C402.28,173.17,401.34,172,400.45,171.13Z" style="fill:#59FF00"></path><path d="M274.44,210.89a231.6,231.6,0,0,1,29.12-20c17.56-10.28,22.15-12.15,40.3-12.23,13.84-.06,27.72.37,41.57.5a3.64,3.64,0,0,0,1.83-.31,1.24,1.24,0,0,0,.59-1.59,1.82,1.82,0,0,0-1-.66c-9.56-3.38-24.6-4.55-33.66-9.14-7.78-3.95-15.37-8.27-23-12.6-20.84-11.89-40.48-23.16-61.16-36.94-19.29-12.84-22.12-16.83-30-15.47-21.95,6.88-74,32.31-80.46,39.81l-.08.1.08,3.77s1.13,1,3.13,2.71a3.76,3.76,0,0,1,.77.18c3.28,1.2,24.87,20.52,41.92,31,1.7,1,3.41,2,5.12,2.94,18,9.48,41.82,18.88,52.65,23.37C269.58,209.18,274.44,210.89,274.44,210.89Z" style="fill:#fff;opacity:0.5"></path><path d="M387.92,175.53a159.3,159.3,0,0,1-16.48-2.68c-6.16-1.28-12.61-2.5-18.28-5.37-7.78-3.95-15.37-8.27-23-12.6-20.83-11.89-40.48-23.16-61.16-36.94-19.28-12.83-22.12-16.83-30-15.47a35.73,35.73,0,0,1,7.42-1.72c18.25-1.14,39.51,3.7,47.9,6.36a67.23,67.23,0,0,1,9.29,4.07c9.88,4.91,19.46,10.42,29,16q17.37,10.1,34.45,20.69c11.5,7.11,23.5,13.91,33.32,23.3.89.85,1.83,2,1.37,3.17-2.64,1.72-6,1.75-9.15,1.59C391.08,175.81,389.49,175.69,387.92,175.53Z" style="opacity:0.15"></path><path d="M367.17,153.39c-24.32-14-41.64-24.75-60.52-35.66-6.88-4-13.36-6.92-22.44-8.34-4.72-.74-12.56-2.13-16.8-2.06-7.19.27-3,4.36,11.39,12.66s53.66,32.2,62,37,21,11.36,37.48,14S407.21,176.51,367.17,153.39Z" style="fill:#455a64"></path><path d="M368.68,183.21c-4.74-2.94-23.79-3.17-32.56-3.57-8.51-.39-14.37.92-20.09,4-.39.2-.78.41-1.16.64-4.62,2.74-29.14,17.21-36.35,21.24s-8.3,9.11-11.8,16.39S243.35,270,242.27,275.64,271,266,271,266l43.85-25.33c1.71-1,2.18-1.28,4.25-2.59s28.95-17.73,39.19-26.15c5.11-4.19,6.55-7.15,8.51-14.53C369.15,188.61,371.65,185.05,368.68,183.21Zm-52.62,52.84c-3.35,2.08-12,6.46-25.07,14.2-16.75,9.94-41.48,21.41-41.65,21.48,5.17-12.77,19.81-43.46,22.51-50s5.35-11.06,8.87-13c7.76-4.34,31.8-17.85,36.44-20.61l0,0a1.61,1.61,0,0,1,2.43,1.25c.06.59.09,1.3.09,2.15v37.91A6.86,6.86,0,0,1,316.06,236.05ZM366,186.88c-.83,3.56-4.06,18.31-8.46,21.88-3.41,2.77-22.79,14.84-29.93,19.56-2.82,1.87-3.4-.63-3.4-3.69,0-7.75,0-24,0-33.16-.17-4.85,1.06-6.77,5-7.45C334.12,183.18,367,182.4,366,186.88Z" style="fill:#263238"></path><path d="M316.06,236.05c-3.35,2.08-12,6.46-25.07,14.2-16.75,9.94-41.48,21.41-41.65,21.48,5.17-12.77,19.81-43.46,22.51-50s5.35-11.06,8.87-13c7.76-4.34,31.8-17.85,36.44-20.61l0,0a1.61,1.61,0,0,1,2.43,1.25c.06.59.09,1.3.09,2.15v37.91A6.86,6.86,0,0,1,316.06,236.05Z" style="opacity:0.5"></path><path d="M366,186.88c-.83,3.56-4.06,18.31-8.46,21.88-3.41,2.77-22.79,14.84-29.93,19.56-2.82,1.87-3.4-.63-3.4-3.69,0-7.75,0-24,0-33.16-.17-4.85,1.06-6.77,5-7.45C334.12,183.18,367,182.4,366,186.88Z" style="opacity:0.5"></path></g><g id="freepik--front-car--inject-15"><path d="M236.71,273.17c-11.35-8.44-36.42-26.55-62.57-41.81-32.87-19.18-67.61-30.42-67.68-30.44.94,3.55,6.55,9.19,14.1,15.32,5.34,4.36,11.37,8.81,18.33,13.49,16.46,11.48,32.05,19.41,37.7,22.78,28.29,15.34,57.08,27.27,61.83,21.62C238.42,274.13,236.72,273.19,236.71,273.17Z" style="fill:#455a64"></path><path d="M238.42,274.13c-1.35-.84-46.09-28.42-66.76-40.85-19.68-11.84-60.26-30.13-65.19-32.36a361,361,0,0,1,67.67,30.44C200.29,246.62,227.08,265.68,238.42,274.13Z" style="fill:#37474f"></path><path d="M113.36,188.86h0l-1,4.2c-2.32,4.35-7.45,9.83-9.29,9.38-1.65-.4-2.66-2.8-3.17-5.76v0a29.4,29.4,0,0,1-.43-4.28c-.16-4.66,1.91-15.51,8.37-18.4a3.34,3.34,0,0,1,3.83.86,7.61,7.61,0,0,1,1.87,3.09C114.61,181.17,113.51,188.69,113.36,188.86Z" style="fill:#59FF00"></path><path d="M113.36,188.86h0c-.34,1.74-1,4.2-1,4.2-2.32,4.35-7.45,9.83-9.29,9.38-1.65-.4-2.66-2.8-3.17-5.76v0a29.4,29.4,0,0,1-.43-4.28c-.16-4.66,1.91-15.51,8.37-18.4a3.34,3.34,0,0,1,3.83.86,7.61,7.61,0,0,1,1.87,3.09C114.61,181.17,113.51,188.69,113.36,188.86Z" style="opacity:0.30000000000000004"></path><path d="M112.35,193.06c-2.32,4.35-7.45,9.83-9.29,9.38-1.65-.4-2.66-2.8-3.17-5.76v0a29.4,29.4,0,0,1-.43-4.28c-.16-4.66,1.91-15.51,8.37-18.4a3.34,3.34,0,0,1,3.83.86l-.88,2c-4.52,1.92-5.74,8.9-5.32,14.2S109.76,195.8,112.35,193.06Z" style="fill:#59FF00"></path><path d="M112.35,193.06c-2.32,4.35-7.45,9.83-9.29,9.38-1.65-.4-2.66-2.8-3.17-5.76v0a29.4,29.4,0,0,1-.43-4.28c-.16-4.66,1.91-15.51,8.37-18.4a3.34,3.34,0,0,1,3.83.86l-.88,2c-4.52,1.92-5.74,8.9-5.32,14.2S109.76,195.8,112.35,193.06Z" style="opacity:0.35000000000000003"></path><path d="M113.52,177.91c-1.63-1.73-5.69-1.82-9.1,2.87s-4.53,12.74-4.54,15.86a29.4,29.4,0,0,1-.43-4.28c-.16-4.66,1.91-15.51,8.37-18.4C110.52,172.76,112.75,175.52,113.52,177.91Z" style="fill:#37474f"></path><polygon points="258.62 334.18 213.73 308.25 238.67 293.86 258.62 305.42 258.62 334.18" style="fill:#59FF00"></polygon><polygon points="258.62 334.18 213.73 308.25 238.67 293.86 258.62 305.42 258.62 334.18" style="opacity:0.35000000000000003"></polygon><path d="M240.14,327.73l6.45-12.8-15.34-8.88h0c-4.88-2.8-11.38-2.49-18.51,1.63-15.15,8.75-27.44,31.31-27.44,50.4,0,10,3.37,17,8.76,20.24h0l.22.13h0L210,387.55l6.8-13.5C229.7,364.19,239.64,344.76,240.14,327.73Z" style="fill:#37474f"></path><path d="M240.14,327.73l6.45-12.8-15.34-8.88h0c-4.88-2.8-11.38-2.49-18.51,1.63-15.15,8.75-27.44,31.31-27.44,50.4,0,10,3.37,17,8.76,20.24h0l.22.13h0L210,387.55l6.8-13.5C229.7,364.19,239.64,344.76,240.14,327.73Z" style="fill:#263238"></path><path d="M256.13,335.61c0,16.46-9.13,35.5-21.36,46a.08.08,0,0,0-.05.05,41.24,41.24,0,0,1-6,4.31c-15.15,8.75-27.45.37-27.43-18.72,0-14.41,7-30.83,17-41.76a.36.36,0,0,0,.08-.09,44.32,44.32,0,0,1,10.38-8.54C243.85,308.15,256.13,316.53,256.13,335.61Z" style="fill:#37474f"></path><path d="M228.7,328.42c9.64-5.57,17.46.23,17.46,12.95s-7.82,27.55-17.46,33.12-17.46-.23-17.46-13S219.06,334,228.7,328.42Z" style="fill:#455a64"></path><path d="M236.59,347.93c-.67,6.33-4.74,13-9.09,15a4.23,4.23,0,0,1-4.75-.4c-1.53-1.31-2.31-4-1.94-7.54.66-6.32,4.73-13,9.09-15a4.9,4.9,0,0,1,3.19-.42h0C235.61,340.2,237.07,343.33,236.59,347.93Z" style="fill:#fafafa"></path><path d="M235,347.12c-.66,6.32-4.74,13-9.09,15a5,5,0,0,1-3.19.42c-1.53-1.31-2.31-4-1.94-7.54.66-6.32,4.73-13,9.09-15a4.9,4.9,0,0,1,3.19-.42h0C234.62,340.9,235.4,343.57,235,347.12Z" style="fill:#e0e0e0"></path><path d="M256.13,335.61c0,16.46-9.13,35.5-21.36,46,7.24-7.89,14.74-21.09,17.4-33.67,2.32-11,1.44-26.8-8-30.79s-21.9,4.42-25.85,8.25a44.32,44.32,0,0,1,10.38-8.54C243.85,308.15,256.13,316.53,256.13,335.61Z" style="fill:#455a64"></path><path d="M258.71,269.62s-2.61-.49-2-2.76c0,0-15.29,7-18.5,8.06-7,2.31-33.33-7.05-61.62-22.41-5.65-3.37-21.24-11.29-37.69-22.78-7-4.68-13-9.13-18.35-13.49A87,87,0,0,1,108.14,204c-.9-1.1-2.77-4.13-1.67-6.6-56.1,39.91-86.86,56.43-80.27,101.94,0,0,.22,3.34,1.43,10.07,1.86,10.27,7.34,27.73,21.45,37.69,13,9.14,13.85,9.81,31.42,19.29s41.24,16.39,64.3,15.66c26-.84,48.73-10.75,49.44-16.77a66,66,0,0,1,1.45-8,81.15,81.15,0,0,1,7.68-19.58c5.19-9.45,12.12-17.73,19.85-23.09,1-.71,2-1.36,3.07-2,16.7-9.64,30.46-1.88,32.23,17.27.13,1.39.19,2.83.19,4.33Z" style="fill:#59FF00"></path><path d="M105.15,369.32c-16.18-4-27.93-10.4-39.41-17.17s-18.95-13.09-23.22-18.46c-4-5.08-6.5-11.66-4-10.74,4.24,3.65,13.4,11.41,19.24,14.94,17.48,10.6,36,23.73,64.57,24.22a23.48,23.48,0,0,1,5.49.42C134.83,364.61,116.15,372.06,105.15,369.32Z" style="fill:#455a64"></path><path d="M164,356.33c-1.59-.22-5.56.84-12.3,2.78s-8.38,2.12-10.88,3.84c-2.11,1.46-7.76,6.06-10.49,7.47-4.32,2.23,0,3.84,12.1,3.85s16.18-3.61,19-7.32S167.6,356.83,164,356.33Z" style="fill:#455a64"></path><path d="M26.51,302.24h0c.22,1.67.56,4,1.12,7.15A76.2,76.2,0,0,0,32,324.29a4.07,4.07,0,0,0,2.23,1.34c2.06-.14.3-3.7-1.18-9S27.86,306.18,26.51,302.24Z" style="fill:#455a64"></path><path d="M59.79,287.57a285.82,285.82,0,0,0,51.29,29.51c2.67,1.21,4,4.42,2.29,6.78a31.33,31.33,0,0,1-9.71,8.58c-2.58,1.4-7.23,1-10-.08q-23.1-8.78-38.52-22c-2.23-1.91-4.83-5.8-4.92-8.73a38.24,38.24,0,0,1,1.92-13.47C53.24,285.42,57.43,285.83,59.79,287.57Z" style="fill:#fff;opacity:0.85"></path><path d="M99.29,330.14a13.68,13.68,0,0,1-4.47-.75c-15-5.7-27.64-12.92-37.58-21.45-1.91-1.64-3.76-4.76-3.81-6.42a35.33,35.33,0,0,1,1.67-12.1c.5-1,2.18.25,2.8.71A290.12,290.12,0,0,0,109.77,320a2.1,2.1,0,0,1,1.15,1.27.77.77,0,0,1-.13.73,28.11,28.11,0,0,1-8.66,7.66A6.44,6.44,0,0,1,99.29,330.14Z" style="fill:#59FF00"></path><path d="M99.29,330.14a13.68,13.68,0,0,1-4.47-.75c-15-5.7-27.64-12.92-37.58-21.45-1.91-1.64-3.76-4.76-3.81-6.42a35.33,35.33,0,0,1,1.67-12.1c.5-1,2.18.25,2.8.71A290.12,290.12,0,0,0,109.77,320a2.1,2.1,0,0,1,1.15,1.27.77.77,0,0,1-.13.73,28.11,28.11,0,0,1-8.66,7.66A6.44,6.44,0,0,1,99.29,330.14Z" style="opacity:0.35000000000000003"></path><path d="M74.55,321.48l-3.1-.74a80.05,80.05,0,0,1,7.36-18.5l2.76,1.58A78.57,78.57,0,0,0,74.55,321.48Z" style="fill:#59FF00"></path><path d="M74.55,321.48l-3.1-.74a80.05,80.05,0,0,1,7.36-18.5l2.76,1.58A78.57,78.57,0,0,0,74.55,321.48Z" style="fill:#fff;opacity:0.85"></path><path d="M111.84,322.64A266.77,266.77,0,0,1,78.5,306.05c-12.29-7.53-24.47-16.3-24.59-16.38l.31-.43c.12.08,12.28,8.83,24.56,16.36A263.29,263.29,0,0,0,112,322.13Z" style="fill:#59FF00"></path><path d="M110.25,324.13a257.43,257.43,0,0,1-32.83-16.29C65.13,300.3,53.8,292.05,53.69,292l.31-.43c.11.09,11.42,8.33,23.7,15.86a256.65,256.65,0,0,0,32.72,16.24Z" style="fill:#59FF00"></path><path d="M108.66,325.63a245.64,245.64,0,0,1-32.32-16c-12.29-7.54-22.78-15.29-22.88-15.37l.32-.43c.1.08,10.56,7.82,22.84,15.35a244.37,244.37,0,0,0,32.21,15.94Z" style="fill:#59FF00"></path><path d="M107.08,327.12a230.51,230.51,0,0,1-31.82-15.7c-12.29-7.54-21.93-14.79-22-14.87l.32-.42c.09.07,9.71,7.31,22,14.83a229,229,0,0,0,31.71,15.66Z" style="fill:#59FF00"></path><path d="M105.49,328.61A221.25,221.25,0,0,1,74.18,313.2C61.88,305.67,53.1,298.92,53,298.85l.33-.42c.08.06,8.85,6.8,21.12,14.32a220.48,220.48,0,0,0,31.2,15.36Z" style="fill:#59FF00"></path><path d="M103.9,330.11A213.17,213.17,0,0,1,73.1,315a227,227,0,0,1-20.31-13.85l.33-.41a229.44,229.44,0,0,0,20.26,13.81,212.4,212.4,0,0,0,30.69,15.07Z" style="fill:#59FF00"></path><path d="M102.32,331.6A203.49,203.49,0,0,1,72,316.78a199.73,199.73,0,0,1-19.46-13.34l.34-.41a198.43,198.43,0,0,0,19.4,13.3,203.77,203.77,0,0,0,30.19,14.77Z" style="fill:#59FF00"></path><g style="opacity:0.85"><path d="M111.84,322.64A266.77,266.77,0,0,1,78.5,306.05c-12.29-7.53-24.47-16.3-24.59-16.38l.31-.43c.12.08,12.28,8.83,24.56,16.36A263.29,263.29,0,0,0,112,322.13Z" style="fill:#fff"></path><path d="M110.25,324.13a257.43,257.43,0,0,1-32.83-16.29C65.13,300.3,53.8,292.05,53.69,292l.31-.43c.11.09,11.42,8.33,23.7,15.86a256.65,256.65,0,0,0,32.72,16.24Z" style="fill:#fff"></path><path d="M108.66,325.63a245.64,245.64,0,0,1-32.32-16c-12.29-7.54-22.78-15.29-22.88-15.37l.32-.43c.1.08,10.56,7.82,22.84,15.35a244.37,244.37,0,0,0,32.21,15.94Z" style="fill:#fff"></path><path d="M107.08,327.12a230.51,230.51,0,0,1-31.82-15.7c-12.29-7.54-21.93-14.79-22-14.87l.32-.42c.09.07,9.71,7.31,22,14.83a229,229,0,0,0,31.71,15.66Z" style="fill:#fff"></path><path d="M105.49,328.61A221.25,221.25,0,0,1,74.18,313.2C61.88,305.67,53.1,298.92,53,298.85l.33-.42c.08.06,8.85,6.8,21.12,14.32a220.48,220.48,0,0,0,31.2,15.36Z" style="fill:#fff"></path><path d="M103.9,330.11A213.17,213.17,0,0,1,73.1,315a227,227,0,0,1-20.31-13.85l.33-.41a229.44,229.44,0,0,0,20.26,13.81,212.4,212.4,0,0,0,30.69,15.07Z" style="fill:#fff"></path><path d="M102.32,331.6A203.49,203.49,0,0,1,72,316.78a199.73,199.73,0,0,1-19.46-13.34l.34-.41a198.43,198.43,0,0,0,19.4,13.3,203.77,203.77,0,0,0,30.19,14.77Z" style="fill:#fff"></path></g><path d="M100.66,209.33c-2.52-.55-40.49,27.61-45.42,32.52s-2.8,4.79,1.37,13c5.11,10-.83,18.72,2.78,18,1.78-.35,9.5-16.26,20.78-31.74C91.7,225.29,105,210.26,100.66,209.33Z" style="fill:#fff;opacity:0.5"></path><path d="M161.43,332.3c2.15-2.56,3.64-5.69,1.84-8.43s-6.06-4.3-9.07-5.17a36.92,36.92,0,0,0-27.9,3.18,17.22,17.22,0,0,0-5.18,4.09,8.41,8.41,0,0,0-2,6.16c1.31,10.26,16.52,11.6,24.33,10.24a31.36,31.36,0,0,0,13.91-6.23A26.6,26.6,0,0,0,161.43,332.3Z" style="fill:#fff;opacity:0.85"></path><path d="M38.39,288.44a5.89,5.89,0,0,0,1.9.54,6.29,6.29,0,0,0,4.78-1.84,16.25,16.25,0,0,0,3.06-4.27c3.91-7.11,13.25-26.32,0-29.47-4.24-1-8.84,3-11.2,6.22A24.36,24.36,0,0,0,32.4,276C32.74,279.88,34.29,286.48,38.39,288.44Z" style="fill:#fff;opacity:0.85"></path><path d="M166.06,331.68a48.94,48.94,0,0,1,31.61,15.19A112.08,112.08,0,0,0,166.06,331.68Z" style="opacity:0.15"></path><path d="M111.11,213.39S83.44,238.12,62,278.13Z" style="opacity:0.15"></path><path d="M118.09,310.5s43.34-22.4,107-30.74Z" style="opacity:0.15"></path><path d="M26.12,293.12c3.38,9.73,15.33,24.54,33.06,34.95s40.71,24.75,66.78,25.6S170,335.17,170,335.17s-13.42,21.41-44,22.08-49.48-12.88-67.68-23.92C39.37,321.85,28.26,305.52,26.12,293.12Z" style="opacity:0.15"></path><path d="M191.75,340.06c6.2-15.74,17.95-28.1,27.76-31.52-10.63.84-24.72,11.75-30.19,30C189.32,338.55,190.91,339.5,191.75,340.06Z" style="fill:#fff;opacity:0.5"></path><path d="M188.33,342.36a59.43,59.43,0,0,0-.91,19.58,57.29,57.29,0,0,1,3.09-18.46Z" style="fill:#fff;opacity:0.5"></path><path d="M164.28,317.75c7.27,3.57,8.13,8.37,13.59,4s45-32.67,54.36-36.68c10.53-4.52.94-5.12-23,2.32S143.77,306.09,142,308.54,150.24,310.85,164.28,317.75Z" style="fill:#fff;opacity:0.5"></path><path d="M180.75,161.46a197.42,197.42,0,0,1-16-13.22q-3.19-2.91-6.17-6a381.69,381.69,0,0,0-52.44,54.5c-2.93,5.07,9.59,16.86,28.12,29.92,38.47,27.11,102.88,59.73,108.94,49.21l30.76-67C237.19,195.5,205.54,179.94,180.75,161.46Zm58.91,112a5.88,5.88,0,0,1-1.67.18c-15,0-65.12-25-101.25-50.46-23.36-16.47-26.32-23.17-26.69-24.52a372.7,372.7,0,0,1,44.77-47.44,5.28,5.28,0,0,1,7.07.08l0,0a200.14,200.14,0,0,0,16.28,13.48C200.35,181.37,228.15,196,263,209.31a5.26,5.26,0,0,1,2.89,7.1Z" style="fill:#37474f"></path><path d="M239.66,273.51a5.88,5.88,0,0,1-1.67.18c-15,0-65.12-25-101.25-50.46-23.36-16.47-26.32-23.17-26.69-24.52a372.7,372.7,0,0,1,44.77-47.44,5.28,5.28,0,0,1,7.07.08l0,0a200.14,200.14,0,0,0,16.28,13.48C200.35,181.37,228.15,196,263,209.31a5.26,5.26,0,0,1,2.89,7.1Z" style="opacity:0.5"></path><path d="M136.74,223.23c5.82,4.1,12,8.19,18.35,12.17,13-21.16,32.33-49.38,39.78-59.16q-8.81-5.53-16.66-11.38c-3.35-2.5-6.54-5-9.58-7.59-19.26,17.9-37,44.76-44.32,56.63C127.62,216.59,131.7,219.68,136.74,223.23Z" style="fill:#fff;opacity:0.2"></path><path d="M206.73,183.3q-3.54-2-6.95-4a635.5,635.5,0,0,0-39.56,59.3q3.84,2.34,7.71,4.6C176.36,229.35,191,206,206.73,183.3Z" style="fill:#fff;opacity:0.2"></path><path d="M200.71,259C219,267.69,238,273.69,239.53,269.6s14.86-30.72,18.67-41.28,4.7-11.72,2.2-14.93-16.34-8.34-38.8-18.93-43.39-29.6-43.39-29.6C200.35,181.37,228.15,196,263,209.31a5.26,5.26,0,0,1,2.89,7.1l-26.2,57.1a5.88,5.88,0,0,1-1.67.18c-15,0-65.12-25-101.25-50.46C144.16,228.65,182.48,250.22,200.71,259Z" style="fill:#fff;opacity:0.30000000000000004"></path><path d="M274.08,270.4c-2.08,9.89-13,12-21.23,11.73-4.35-.12-7.92-.92-9-1.55-3.16-1.83-1.7-5.62,0-7.82,2.88-3.72,15.77-11.19,23.86-11.44C272.42,261.16,275.53,263.46,274.08,270.4Z" style="fill:#59FF00"></path><path d="M274.08,270.4c-2.08,9.89-13,12-21.23,11.73-4.35-.12-7.92-.92-9-1.55-3.16-1.83-1.7-5.62,0-7.82,2.88-3.72,15.77-11.19,23.86-11.44C272.42,261.16,275.53,263.46,274.08,270.4Z" style="opacity:0.30000000000000004"></path><path d="M274.08,270.4c-2.08,9.89-13,12-21.23,11.73-4.35-.12-7.92-.92-9-1.55-3.16-1.83-1.7-5.62,0-7.82-1.59,3,6.85,4.89,14.38,2.19s13.14-8.53,9.48-13.63C272.42,261.16,275.53,263.46,274.08,270.4Z" style="fill:#59FF00"></path><path d="M274.08,270.4c-2.08,9.89-13,12-21.23,11.73-4.35-.12-7.92-.92-9-1.55-3.16-1.83-1.7-5.62,0-7.82-1.59,3,6.85,4.89,14.38,2.19s13.14-8.53,9.48-13.63C272.42,261.16,275.53,263.46,274.08,270.4Z" style="opacity:0.35000000000000003"></path><path d="M274.08,270.4c-2.08,9.89-13,12-21.23,11.73,8.16-.23,14.67-4.94,17.13-10.07s.59-10.09-2.3-10.74C272.42,261.16,275.53,263.46,274.08,270.4Z" style="fill:#37474f"></path></g></g></g><g id="freepik--Character--inject-15"><g id="freepik--character--inject-15"><path d="M368.59,179.16a13.63,13.63,0,0,0-11.89,8c-2.31,5.71-6.16,27.88-7.49,30.79,0,0-1.92,2.58-4.27,5.1-1.49,1.61-10,10.51-13.31,13.65-.81.77-3.27,1.78-4.19,2.39a6.41,6.41,0,0,0-2.28,2.86,14.79,14.79,0,0,0-.74,2.34,10.18,10.18,0,0,0-.19,1.08,1.8,1.8,0,0,1-.25.88l-6,3.47a8.92,8.92,0,0,0,2.23.34,46.58,46.58,0,0,0,6.64-.69,9.13,9.13,0,0,0,5.17-2.55,44.89,44.89,0,0,1,5.55-4.91c3-2.19,8-6.23,10-7.84,2.73-2.15,11.37-8.6,12.92-12.12s5.14-22.54,5.14-22.54Z" style="fill:#ffa8a7"></path><path d="M369.56,348.42c.55,1.66-.71,11.63-.71,11.63a28.21,28.21,0,0,1-4.93,3.17L362.55,353Z" style="fill:#263238"></path><polygon points="363.92 363.22 356.79 359.02 355.81 352.19 363.11 356.96 363.92 363.22"></polygon><path d="M365.16,341.33c1.26-.08,1.15.8,2.25,2.66a20.78,20.78,0,0,1,2.11,4.22c.48,1.78-2.58,4.9-4.5,6.55s-2.69,3.44-3.6,6.36c-1.11,3.53-1.16,5.89-6.49,7.66-4.28,1.41-11.48-.37-12.57-2.32-1.86-3.32,5.42-4.77,8-9.54,3.43-6.24,3.86-8.28,4.71-13a1.19,1.19,0,0,1,1-1Z" style="fill:#37474f"></path><path d="M365.83,336.69l-.41,6.35s-1.08,2.72-5.34,2.88c-4.08.15-3.75-1.76-3.75-1.76V335Z" style="fill:#ffa8a7"></path><path d="M385.75,316.9l13.83-.25c-.2,9.23-1.67,30.23-1.91,38.89-.05,1.63,0,12.67-.57,16-.93,5-6.91,4.35-7.23,1.34s.39-15.9.37-17.23c.05-5.56-2.55-25.69-3.92-35.66C386.26,319.53,385.82,317.38,385.75,316.9Z" style="fill:#ffa8a7"></path><path d="M390.22,354.69c-1,.1-1.12.68-1.19,4.39a78.29,78.29,0,0,1-.87,11.85c-.74,4.17-1.53,8.61,1.84,12.37,2,2.21,5.24,2.77,7.6-.74,2.19-3.25,3.59-6.34,2.59-10.08a39.59,39.59,0,0,1-1.53-9.84c-.11-5.19.22-8-1-8l0,.78c-.39.68-1.57,1.56-3.69,1.62-2.34.06-3.41-.81-3.74-1.54Z" style="fill:#37474f"></path><path d="M389.68,217.26a50.21,50.21,0,0,1,8.7,17.92C402.31,251,396.14,285,396.14,285c.2,2.3,2.82,6.82,3.8,17,1.16,12-2.13,49.61-2.13,49.61s-3.16,2.36-7.75.16c0,0-8.37-52.68-9.87-64.57-1.31-10.37-3.33-26.76-3.33-26.76l-4.77,26.83s.84,5.81,1.27,10.24c.68,7-7.27,42-7.27,42s-5.69,1.64-10.21-.2V286.86c0-10.75.34-30.22,1.38-46.36a198,198,0,0,1,2.95-22.29Z" style="fill:#59FF00"></path><path d="M389.68,217.26a50.21,50.21,0,0,1,8.7,17.92C402.31,251,396.14,285,396.14,285c.2,2.3,2.82,6.82,3.8,17,1.16,12-2.13,49.61-2.13,49.61s-3.16,2.36-7.75.16c0,0-8.37-52.68-9.87-64.57-1.31-10.37-3.33-26.76-3.33-26.76l-4.77,26.83s.84,5.81,1.27,10.24c.68,7-7.27,42-7.27,42s-5.69,1.64-10.21-.2V286.86c0-10.75.34-30.22,1.38-46.36a198,198,0,0,1,2.95-22.29Z" style="opacity:0.5"></path><path d="M376.86,260.35l-2.07-15a24.4,24.4,0,0,1-11.56-3.73,14.76,14.76,0,0,0,9.68,5.41l2,12.34-1.7,21.56Z" style="opacity:0.15"></path><path d="M358.76,204l1.43,9.57c-.77,5.75-2.25,15.55-2.25,15.55,11.06,8.74,34.71,4.28,38-1.74-2.41-5.78-7.65-15.82-7.65-15.82l4.53-13.17s-6.26-8.77-.49-17.83l-9.14-.56-10.62-.75-4,0c-4,3.79-8.44,7.51-10.26,10.43C356.61,192.34,353.53,197.79,358.76,204Z" style="fill:#37474f"></path><path d="M378.38,176.76H357.55V156.6a17.81,17.81,0,0,1,17.81-17.81h0a17.81,17.81,0,0,1,17.81,17.81V162A14.79,14.79,0,0,1,378.38,176.76Z" style="fill:#263238"></path><path d="M388.43,159.19a3.55,3.55,0,0,0-5.91.67s-2.13,1-7.91-1.29c-4.75-1.88-9.61-7.18-10.89-10.32-1.89,2.7-3.66,8.12-3.11,15.39.69,9.19,3.64,10.55,5.12,11.17s4,.17,6.73-.34l.15,5.16s-5.81,6.86-3.32,11.72c9.18-2.71,13.92-11.4,13.92-11.4l.11-13.23s1.51,1.91,4.28-.23A5.28,5.28,0,0,0,388.43,159.19Z" style="fill:#ffa8a7"></path><path d="M371.69,160.44a1.32,1.32,0,1,0,1.47-1.21A1.36,1.36,0,0,0,371.69,160.44Z" style="fill:#263238"></path><path d="M374.2,156.24l2.44,1.75a1.58,1.58,0,0,0-.36-2.15A1.46,1.46,0,0,0,374.2,156.24Z" style="fill:#263238"></path><path d="M373,168.63l-2.92.72a1.47,1.47,0,0,0,1.79,1.14A1.57,1.57,0,0,0,373,168.63Z" style="fill:#f28f8f"></path><path d="M361.39,157.16,364.2,156a1.46,1.46,0,0,0-1.92-.88A1.6,1.6,0,0,0,361.39,157.16Z" style="fill:#263238"></path><path d="M362.18,160a1.23,1.23,0,1,0,1.38-1.13A1.26,1.26,0,0,0,362.18,160Z" style="fill:#263238"></path><polygon points="368.45 159.44 368.26 166.38 364.17 165.44 368.45 159.44" style="fill:#f28f8f"></polygon><path d="M372.46,174.47c2.89-.43,8-2.7,8.86-5.08a5.76,5.76,0,0,1-1.84,3.76c-1.75,1.56-7,3.13-7,3.13Z" style="fill:#f28f8f"></path><path d="M404.26,238.83c1.88-7.76,4.18-18.4,3.76-20.21-.63-2.69-3.39-16.24-5.84-24.24s-4.86-13.29-9.83-13.87c-8.22,4.74-2.56,18-2.56,18l8.06,20.38-2.21,20.91c-.23.94-1.67,1.52-2.47,2.07a18.72,18.72,0,0,0-4.44,3.84c-1.23,1.41-2.32,1.8-2.13,2.22a2.13,2.13,0,0,0,2.77.84,14.88,14.88,0,0,0,3-1.83,21.14,21.14,0,0,1-3,5.47c-2.91,3.91-4.23,6.74,2,6.52,3.9-.14,8.2-3.53,10.75-12.24.17-.52.44-1.47.77-2.71C403.4,242.39,403.87,240.57,404.26,238.83Z" style="fill:#ffa8a7"></path></g></g></svg>